PathFileType	4	(X/Y/Z)	 s04c0402.trc
DataRate	CameraRate	NumFrames	NumMarkers	Units	OrigDataRate	OrigDataStartFrame	OrigNumFrames
200	200	4	50	mm	200	1501	2000
Frame#	Time	racr			lacr			c7			jug			rlel			rdr			llel			ldr			s2			lic			ric			lasi			rasi			rpsi			lpsi			rgt			lgt			rth1			rth2			rth3			rth4			rlfc			rmfc			rsh1			rsh2			rsh3			rsh4			rlmal			rmmal			rcal			rtoe			rmt5			lth1			lth2			lth4			lth3			llfc			lmfc			lsh1			lsh2			lsh3			lsh4			llmal			lmmal			lcal			ltoe			lmt5			SBIKE			LBIKE			RBIKE			
		X1	Y1	Z1	X2	Y2	Z2	X3	Y3	Z3	X4	Y4	Z4	X5	Y5	Z5	X6	Y6	Z6	X7	Y7	Z7	X8	Y8	Z8	X9	Y9	Z9	X10	Y10	Z10	X11	Y11	Z11	X12	Y12	Z12	X13	Y13	Z13	X14	Y14	Z14	X15	Y15	Z15	X16	Y16	Z16	X17	Y17	Z17	X18	Y18	Z18	X19	Y19	Z19	X20	Y20	Z20	X21	Y21	Z21	X22	Y22	Z22	X23	Y23	Z23	X24	Y24	Z24	X25	Y25	Z25	X26	Y26	Z26	X27	Y27	Z27	X28	Y28	Z28	X29	Y29	Z29	X30	Y30	Z30	X31	Y31	Z31	X32	Y32	Z32	X33	Y33	Z33	X34	Y34	Z34	X35	Y35	Z35	X36	Y36	Z36	X37	Y37	Z37	X38	Y38	Z38	X39	Y39	Z39	X40	Y40	Z40	X41	Y41	Z41	X42	Y42	Z42	X43	Y43	Z43	X44	Y44	Z44	X45	Y45	Z45	X46	Y46	Z46	X47	Y47	Z47	X48	Y48	Z48	X49	Y49	Z49	X50	Y50	Z50	
1501	7.5050	837.959420	1275.365418	-47.639642	835.089421	1224.732094	-372.510897	856.206698	1337.477974	-222.225372	786.499527	1192.945425	-210.937522	550.896474	1151.598544	75.882487	700.179945	944.950670	-46.022418	613.088476	1160.553845	-569.692619	695.611995	942.768670	-458.872676	254.936756	1278.110918	-296.217245	427.402409	1209.218934	-416.382633	374.541632	1290.670751	-112.025597	442.091574	1161.045314	-360.640419	413.721791	1229.535740	-143.332964	287.337061	1322.702736	-258.884117	301.187329	1307.376310	-332.514192	329.942838	1251.397629	-89.695431	346.443369	1132.436001	-441.712023	439.426074	1135.862602	-74.412965	516.483977	1093.461383	-81.243808	564.089362	1022.439312	-79.488949	537.191110	1116.845858	-102.857819	657.520639	909.061507	-107.420936	637.474895	892.733206	-220.540034	561.842491	832.768382	-85.863520	511.917128	756.634000	-97.704407	433.864632	721.755473	-106.011650	536.494486	734.178504	-118.065776	328.508125	604.472857	-116.353701	355.435948	598.617383	-197.934559	256.594454	617.076323	-157.902645	482.434560	415.969337	-147.953149	414.520883	439.484627	-94.318693	342.549201	1049.293421	-458.784507	366.515380	965.811476	-461.443744	401.349052	966.462599	-451.465353	344.718678	879.530562	-465.998482	329.967062	714.305450	-448.973539	349.357686	675.523948	-339.334230	271.904949	601.246220	-473.581772	244.864780	520.187025	-455.215195	180.070701	459.361306	-455.130808	270.735946	506.709565	-428.542140	100.153820	333.785046	-453.860848	97.045068	335.059289	-366.322806	24.835439	358.135488	-415.031016	253.911375	159.430270	-399.834477	178.610283	172.632423	-465.540760	-177.351824	936.834196	-279.697536	-3.308486	85.795743	-484.621879	-15.062166	80.620869	-84.199685	
1502	7.5100	838.803163	1272.447472	-47.375660	833.704348	1224.497357	-372.552791	856.460319	1336.600315	-222.738159	786.327877	1192.220771	-212.430516	550.069721	1151.477598	75.913114	700.104573	945.388127	-46.012410	611.745541	1160.479467	-569.307245	695.751852	942.812594	-458.792273	255.089604	1281.794073	-294.576368	426.905805	1212.289607	-415.445928	374.698153	1292.285482	-110.874589	441.656533	1163.462133	-359.669628	413.406525	1230.955540	-142.498001	287.752342	1325.781277	-257.402055	301.521847	1310.870831	-330.830311	330.122254	1253.842871	-88.136293	346.503553	1135.828233	-441.218489	438.393326	1136.104843	-74.475935	514.815519	1092.772879	-81.983908	561.378264	1021.088348	-81.415191	535.764805	1116.163144	-103.701107	653.720145	906.958748	-109.781639	633.261920	890.576421	-222.826319	559.370753	829.269202	-88.340785	511.500928	751.825783	-99.429825	434.013739	715.016772	-107.052144	536.376337	729.720167	-119.291517	331.404461	595.146003	-116.115310	357.698701	589.838737	-198.042167	258.678799	605.881744	-156.787347	490.398464	411.983651	-148.206842	422.210590	433.039821	-93.931540	344.223256	1051.948442	-457.670475	370.177932	969.097881	-460.471777	404.932925	970.527872	-450.303661	350.545567	882.263596	-465.368939	338.514980	717.457424	-449.765658	357.811228	678.049094	-340.381905	277.558383	606.000347	-474.665494	248.272358	525.746884	-455.919475	181.734899	466.796091	-455.701732	273.930030	511.548100	-429.257778	98.121780	343.582360	-454.200316	95.932530	344.918259	-366.741930	23.673837	369.874495	-414.776592	246.133022	163.708858	-400.148438	171.188687	179.603164	-465.727858	-177.278636	936.933221	-279.500480	-3.299309	85.864378	-484.589414	-15.041475	80.644652	-84.173330	
1503	7.5150	839.680827	1269.684362	-47.221946	832.333038	1224.535661	-372.806242	856.646442	1335.815014	-222.197284	786.146117	1191.552193	-213.120449	549.388985	1151.397892	75.896942	700.019655	945.719668	-45.865467	610.311730	1160.341160	-568.955182	695.820533	942.894909	-458.588894	255.375520	1285.336741	-292.882419	426.279270	1215.849330	-415.795706	374.848992	1293.678640	-109.666433	441.330740	1166.134494	-359.176771	413.114968	1231.942926	-141.554581	288.219633	1329.043142	-255.033381	301.981637	1314.240118	-329.093034	330.236847	1254.925998	-87.744764	346.504508	1139.298784	-440.670560	437.200663	1135.671783	-74.563769	513.165716	1091.411449	-82.417238	557.179652	1018.631526	-83.008514	534.187073	1114.439665	-104.318819	646.590751	904.415406	-110.563344	628.206881	887.001370	-225.402092	556.385452	824.303399	-90.621689	510.295698	745.725458	-100.913008	433.681086	707.104720	-108.042758	535.655260	723.935712	-120.685922	333.788257	584.816211	-116.046054	359.348848	580.245521	-198.251269	260.222892	593.692074	-155.779191	497.720135	407.455108	-148.165180	429.134671	426.094241	-93.331700	346.118533	1054.702569	-456.381250	374.302229	972.519998	-459.451360	408.903756	974.810716	-449.019936	356.960222	885.224637	-464.939171	347.822237	720.617394	-450.391829	366.915524	681.098922	-341.323552	283.784351	610.816758	-475.331869	252.395775	531.555252	-456.534082	184.280742	474.502524	-456.259739	277.283380	516.974387	-429.696562	96.962771	353.576086	-454.522443	95.571806	354.474335	-367.333946	23.464072	382.211876	-414.485222	237.853222	167.079662	-399.813112	164.262387	186.796683	-465.774393	-177.162071	937.026185	-279.220227	-3.259560	86.003316	-484.556892	-15.004692	80.667213	-84.143294	
1504	7.5200	840.560171	1266.648451	-47.480771	830.906432	1224.756960	-373.160776	856.587086	1333.902574	-218.476648	785.654125	1189.777986	-211.037518	548.761846	1151.330326	75.838194	699.952185	946.016576	-45.685439	608.808764	1160.110707	-568.588250	695.782075	942.975337	-458.279514	255.748138	1288.616294	-291.361182	428.465240	1219.405063	-416.572524	375.019077	1294.676300	-108.401571	441.074750	1168.806512	-358.792218	412.849230	1232.518947	-140.523973	288.696416	1331.939215	-252.580278	302.404538	1317.465316	-327.046101	330.125129	1255.478213	-87.191277	346.574896	1142.893090	-440.111959	435.871689	1134.305775	-74.775891	511.114097	1089.078447	-83.039752	554.420343	1015.549866	-84.312524	532.459943	1111.819016	-104.702950	641.979563	900.271281	-112.753873	622.848672	883.162179	-226.815667	553.052048	817.863228	-92.450429	508.692508	738.214057	-102.270199	432.945806	697.892243	-108.968928	534.548362	717.005719	-122.194681	335.505064	573.702617	-116.221881	360.352866	569.719724	-198.638220	261.176243	580.545202	-155.130544	504.469701	402.429570	-147.657724	435.384310	418.623419	-92.762867	348.280193	1057.400326	-454.989159	378.806298	976.038874	-458.328879	413.218705	979.241177	-447.677373	363.990010	888.401469	-464.649934	357.846669	723.949647	-450.949933	376.049207	684.201624	-342.304318	290.716645	615.877736	-476.102886	257.184536	537.580654	-457.106448	187.461255	482.429812	-456.792775	281.551847	522.462969	-430.102356	96.393174	364.000104	-454.838931	93.170247	364.496379	-367.088871	24.019263	394.801291	-414.249035	230.633591	171.682930	-399.831776	157.947652	194.477613	-465.838976	-177.012175	937.134545	-278.906348	-3.210575	86.143214	-484.521314	-14.978208	80.685333	-84.139864	
